<?xml version="1.0" standalone="no"?>
<!DOCTYPE svg PUBLIC "-//W3C//DTD SVG 20010904//EN"
"http://www.w3.org/TR/2001/REC-SVG-20010904/DTD/svg10.dtd">
<svg
   style="fill:#000000;fill-opacity:0.5;stroke:none"
   width="595.275591"
   height="841.889764"
   id="svg1"
   sodipodi:docbase="/home/aglanor/"
   sodipodi:docname="/home/aglanor/dimelogo.svg"
   xmlns="http://www.w3.org/2000/svg"
   xmlns:sodipodi="http://sodipodi.sourceforge.net/DTD/sodipodi-0.dtd"
   xmlns:xlink="http://www.w3.org/1999/xlink">  <defs
     id="defs3">    <linearGradient
       id="linearGradient17">      <stop
         offset="0.000000"
         style="stop-color:#000000;stop-opacity:0.498039;"
         id="stop18">
      </stop>
      <stop
         offset="1.000000"
         style="stop-color:#ffffff;stop-opacity:0.498039;"
         id="stop19">
      </stop>

    </linearGradient>
    <linearGradient
       id="linearGradient5">      <stop
         style="stop-color:#000000;stop-opacity:1;"
         offset="0.000000"
         id="stop6">
      </stop>
      <stop
         style="stop-color:#ffffff;stop-opacity:1;"
         offset="1.000000"
         id="stop7">
      </stop>

    </linearGradient>
    <linearGradient
       xlink:href="#linearGradient5"
       id="linearGradient8"
       x1="1.058594"
       y1="0.828125"
       x2="-0.136719"
       y2="0.070312">
    </linearGradient>
    <linearGradient
       xlink:href="#linearGradient17"
       id="linearGradient16"
       x1="-0.064991"
       y1="0.171875"
       x2="1.155844"
       y2="0.796875">
    </linearGradient>

  </defs>
  <sodipodi:namedview
     id="base">
  </sodipodi:namedview>
  <ellipse
     style="stroke:none; stroke-opacity:100%; stroke-width:2pt; stroke-linejoin:miter; stroke-linecap:butt; fill:url(#linearGradient8); "
     id="ellipse4"
     cx="238.950448"
     cy="642.850665"
     rx="45.500000"
     ry="43.000000"
     transform="matrix(1.0989 0 0 1.16279 -8.16112 -107.576)">
  </ellipse>
  <text
     style="fill:#000000; stroke:none; font-family:Century Schoolbook L; font-style:normal; font-weight:bold; font-size:20.000000; fill-opacity:1; fill-rule:evenodd; stroke-opacity:1; stroke-width:1px; stroke-linejoin:miter; stroke-linecap:butt; "
     x="229.656652"
     y="628.012339"
     id="text9">dime</text>
  <ellipse
     style="stroke:none; fill:#7f7f7f; fill-opacity:1; fill-rule:evenodd; stroke-opacity:1; stroke-width:1px; stroke-linejoin:miter; stroke-linecap:butt; "
     id="ellipse12"
     cx="254.735007"
     cy="638.827379"
     rx="0.313479"
     ry="0.156740">
  </ellipse>
  <path
     style="stroke:#000000; stroke-opacity:30%; stroke-width:1pt; stroke-linejoin:miter; stroke-linecap:butt; fill:url(#linearGradient16); "
     id="path32"
     d="M 225.45 630.771 C 228.709 630.771 236.728 630.853 239.727 630.853 C 241.691 630.853 248.951 630.598 256.04 630.774 C 260.776 630.598 267.415 630.771 271.895 630.771 C 278.61 630.639 282.015 630.806 285.579 630.631 C 283.962 634.947 282.397 638.31 281.343 641.355 C 278.01 641.533 275.872 642.123 273.006 642.993 C 271.456 643.288 269.994 644.028 269.105 644.697 C 267.374 646.31 266.003 647.604 265.708 648.84 C 265.133 650.513 265.128 653.101 265.45 653.882 C 265.89 655.431 266.425 657.355 267.006 657.882 C 268.217 659.14 270.46 660.521 271.45 660.993 C 272.727 661.733 275.143 662.058 278.059 662.409 C 279.599 665.366 280.048 668.271 281.277 671.146 C 278.123 671.334 268.261 671.355 266.332 671.355 C 263.83 671.355 255.917 671.66 253.399 671.66 C 251.473 671.66 245.25 671.833 240.782 671.66 C 237.08 671.66 230.55 671.873 228.396 671.697 C 228.945 667.637 229.098 665.511 229.625 663.473 C 232.031 662.771 235.332 661.514 235.895 661.215 C 236.799 660.734 239.406 658.843 240.117 658.326 C 240.793 657.835 242.63 656.049 242.923 653.368 C 243.11 651.487 243.205 650.539 242.339 648.771 C 241.686 647.438 241.041 645.774 240.043 645.062 C 238.57 644.01 236.55 643.337 234.91 642.653 C 233.75 642.169 232.353 641.742 229.672 641.215 C 228.443 638.924 226.199 633.36 225.45 630.771 z "
     sodipodi:nodetypes="ccccccsssssscccccccsssssscc">
  </path>
  <path
     style="stroke:none; fill-rule:nonzero; fill:#000000; fill-opacity:60%; stroke-opacity:1; stroke-width:1px; stroke-linejoin:miter; stroke-linecap:butt; "
     id="path18"
     d="M 271.004 651.21 C 271.356 649.763 271.747 649.88 273.307 649.713 C 275.157 649.527 276.146 649.383 277.996 649.206 C 279.586 649.049 281.17 648.83 282.762 648.693 C 283.847 648.611 284.943 648.54 286.031 648.576 C 287.71 648.669 288.368 650.853 286.509 651.23 C 286.509 651.23 283.957 651.157 283.077 651.218 C 281.495 651.344 279.923 651.563 278.342 651.699 C 276.555 651.858 274.754 651.946 272.98 652.227 C 271.637 652.486 270.666 652.37 271.004 651.21 z "
     sodipodi:nodetypes="cccccccccc">
  </path>
  <path
     style="stroke:none; fill-rule:nonzero; fill:#000000; fill-opacity:60%; stroke-opacity:1; stroke-width:1px; stroke-linejoin:miter; stroke-linecap:butt; "
     id="path17"
     d="M 274.171 636.476 C 276.358 636.484 275.68 635.811 275.357 637.763 C 275.03 639.553 274.806 642.189 274.28 643.932 C 273.707 645.823 272.944 647.364 272.267 649.221 C 271.49 651.255 270.801 653.614 269.74 655.518 C 268.636 657.411 267.265 659.072 265.699 660.601 C 264.413 661.818 262.998 662.884 261.627 664.001 C 260.744 664.725 259.866 665.452 259.003 666.199 C 257.883 667.173 255.464 665.371 256.706 664.345 C 256.764 664.296 256.735 664.321 256.793 664.272 L 259.097 666.114 C 259.046 666.156 259.072 666.135 259.021 666.177 C 258.678 666.471 256.35 664.633 256.772 664.335 C 257.697 663.664 258.574 662.924 259.465 662.21 C 260.786 661.167 262.134 660.143 263.369 658.998 C 264.78 657.655 266.022 656.191 266.998 654.501 C 268.004 652.704 268.839 650.799 269.557 648.871 C 270.213 647.051 270.78 645.197 271.328 643.342 C 271.822 641.694 272.052 640.542 272.302 638.838 C 272.547 637.007 271.918 636.484 274.171 636.476 z "
     sodipodi:nodetypes="cccccccccccccccccccc">
  </path>
  <path
     style="stroke:none; fill-rule:nonzero; fill:#000000; fill-opacity:60%; stroke-opacity:1; stroke-width:1px; stroke-linejoin:miter; stroke-linecap:butt; "
     id="path16"
     d="M 262.885 641.178 C 260.382 641.17 261.432 640.39 262.568 639.067 C 264.036 637.43 265.745 636.412 267.783 635.608 C 270.372 634.663 273.056 634.156 275.801 633.958 C 277.545 633.865 279.255 633.978 280.989 634.141 C 282.319 634.26 283.652 634.178 284.98 634.082 C 285.891 634.015 286.802 633.95 287.712 633.872 C 288.626 633.794 288.756 634.183 289.578 634.945 L 289.305 636.121 C 289.757 636.538 288.5 636.513 287.885 636.491 C 287.002 636.484 286.117 636.562 285.236 636.618 C 283.703 636.713 282.169 636.8 280.635 636.663 C 279.098 636.52 277.58 636.377 276.034 636.427 C 273.664 636.55 271.331 636.975 269.102 637.8 C 267.552 638.429 266.228 639.211 265.14 640.496 C 263.991 641.917 265.138 641.171 262.885 641.178 z "
     transform="matrix(1 0 0 1 0 0)"
     sodipodi:nodetypes="cccccccccccccccc">
  </path>
  <path
     style="stroke:none; fill-rule:nonzero; fill:#000000; fill-opacity:60%; stroke-opacity:1; stroke-width:1px; stroke-linejoin:miter; stroke-linecap:butt; "
     d="M 222.76 657.166 C 221.129 656.071 221.407 656.347 222.867 654.568 C 225.015 652.241 227.788 653.044 230.035 654.781 C 232.372 656.77 234.153 659.272 235.757 661.868 C 236.453 663.01 237.963 666.635 234.719 666.178 C 234.31 666.121 234.318 662.04 234.315 661.762 C 234.348 658.631 234.727 655.477 235.935 652.566 C 237.005 650.355 238.919 649.093 241.197 650.706 C 242.878 652.074 244.363 653.593 246.133 654.873 C 247.386 655.757 248.669 656.597 250.031 657.305 C 250.581 657.582 248.444 658.65 248.337 658.043 C 248.22 657.375 248.358 656.514 248.347 655.832 C 248.284 652.11 248.554 648.574 250.406 645.264 C 252.272 642.374 254.953 640.509 258.283 639.681 C 258.919 639.555 259.536 639.471 260.184 639.45 L 260.204 641.985 C 259.832 641.965 259.478 642.004 259.11 642.059 C 256.521 642.591 254.471 644.073 252.997 646.249 C 251.27 649.185 251.071 652.412 251.282 655.742 C 251.441 657.781 251.444 661.241 248.27 659.44 C 246.828 658.614 245.477 657.664 244.134 656.685 C 242.407 655.403 240.85 653.941 239.159 652.628 C 238.919 652.462 238.887 653.144 238.742 653.397 C 237.497 655.971 237.191 658.879 237.235 661.705 C 237.293 662.915 237.766 666.595 236.559 666.506 C 233.32 666.266 235.015 664.151 234.688 666.076 C 235.207 667.129 233.68 663.953 233.098 662.934 C 231.706 660.573 230.137 658.309 228.004 656.553 C 227.214 655.965 226.26 655.106 225.443 655.973 C 223.999 657.731 224.643 658.403 222.76 657.166 z "
     id="path20"
     sodipodi:nodetypes="cccccccccccccccccccccccccccccc">
  </path>

</svg>
